<?xml version="1.0" encoding="utf-8"?>
<!-- Generated by IcoMoon.io -->
<!DOCTYPE svg PUBLIC "-//W3C//DTD SVG 1.1//EN" "http://www.w3.org/Graphics/SVG/1.1/DTD/svg11.dtd">
<svg version="1.1" xmlns="http://www.w3.org/2000/svg" xmlns:xlink="http://www.w3.org/1999/xlink" width="512" height="512" viewBox="0 0 512 512">
<g>
</g>
	<path d="M256.43 91.576c19.906 0 36.362-16.435 36.362-36.362 0-20.756-16.445-36.803-36.362-36.803-20.316 0-36.762 16.036-36.762 36.803 0 19.927 16.446 36.362 36.762 36.362z" fill="#000000" />
	<path d="M347.3 347.32c-4.762-35.481-20.327-67.942-43.694-94.362 20.316-21.637 16.435-51.917 16.435-78.736 0-83.958-127.652-84.818-127.652 0 0 27.699-4.352 56.699 15.995 78.736-22.948 26.419-38.482 58.88-43.694 94.362h182.61zM283.678 159.939c0-2.202 2.181-4.342 4.772-4.342 2.192 0 4.342 2.14 4.342 4.342v81.776l-6.062-6.482c-2.181-1.72-3.051-3.922-3.051-6.523v-68.772zM219.668 159.939c0-2.202 1.7-4.342 4.751-4.342 2.15 0 4.751 2.14 4.751 4.342v68.782c0 2.601-1.731 4.803-3.042 6.523l-6.462 6.482v-81.787z" fill="#000000" />
	<path d="M260.752 479.724c0 7.783 6.512 13.865 13.865 13.865 7.373 0 13.844-6.082 13.844-13.865v-123.74h-27.699v123.74z" fill="#000000" />
	<path d="M224.42 479.724c0 7.783 6.062 13.865 13.415 13.865 7.782 0 13.865-6.082 13.865-13.865v-123.74h-27.269v123.74z" fill="#000000" />
</svg>
